<?xml version="1.0" encoding="UTF-8" standalone="yes"?><svg xmlns="http://www.w3.org/2000/svg" xmlns:xlink="http://www.w3.org/1999/xlink" height="463px" style="width:398px;height:463px;" version="1.1" viewBox="0 0 398 463" width="398px"><defs><filter height="300%" id="f1" width="300%" x="-1" y="-1"><feGaussianBlur result="blurOut" stdDeviation="2.0"/><feColorMatrix in="blurOut" result="blurOut2" type="matrix" values="0 0 0 0 0 0 0 0 0 0 0 0 0 0 0 0 0 0 .4 0"/><feOffset dx="4.0" dy="4.0" in="blurOut2" result="blurOut3"/><feBlend in="SourceGraphic" in2="blurOut3" mode="normal"/></filter></defs><g><text fill="#000000" font-family="sans-serif" font-size="18" font-weight="bold" lengthAdjust="spacingAndGlyphs" textLength="397" x="0" y="16.708">learnOptimWBC::IWBM - ClassDiagram:</text><rect fill="#FEFECE" filter="url(#f1)" height="48" style="stroke: #A80036; stroke-width: 1.5;" width="75" x="155.25" y="28.9531"/><ellipse cx="170.25" cy="44.9531" fill="#A9DCDF" rx="11" ry="11" style="stroke: #A80036; stroke-width: 1.0;"/><path d="M170.3594,40.2969 L169.2031,45.375 L171.5313,45.375 L170.3594,40.2969 Z M168.875,38.0625 L171.8594,38.0625 L175.2188,50.4531 L172.7656,50.4531 L172,47.3906 L168.7188,47.3906 L167.9688,50.4531 L165.5313,50.4531 L168.875,38.0625 Z "/><text fill="#000000" font-family="sans-serif" font-size="12" font-style="italic" lengthAdjust="spacingAndGlyphs" textLength="43" x="184.25" y="49.1074">handle</text><line style="stroke: #A80036; stroke-width: 1.5;" x1="156.25" x2="229.25" y1="60.9531" y2="60.9531"/><line style="stroke: #A80036; stroke-width: 1.5;" x1="156.25" x2="229.25" y1="68.9531" y2="68.9531"/><rect fill="#FEFECE" filter="url(#f1)" height="316.8984" style="stroke: #A80036; stroke-width: 1.5;" width="308" x="38.5" y="137.4531"/><ellipse cx="172.25" cy="153.4531" fill="#ADD1B2" rx="11" ry="11" style="stroke: #A80036; stroke-width: 1.0;"/><path d="M175.2188,159.0938 Q174.6406,159.3906 174,159.5391 Q173.3594,159.6875 172.6563,159.6875 Q170.1563,159.6875 168.8359,158.0391 Q167.5156,156.3906 167.5156,153.2656 Q167.5156,150.1406 168.8359,148.4844 Q170.1563,146.8281 172.6563,146.8281 Q173.3594,146.8281 174.0078,146.9844 Q174.6563,147.1406 175.2188,147.4375 L175.2188,150.1563 Q174.5938,149.5781 174,149.3047 Q173.4063,149.0313 172.7813,149.0313 Q171.4375,149.0313 170.75,150.1016 Q170.0625,151.1719 170.0625,153.2656 Q170.0625,155.3594 170.75,156.4297 Q171.4375,157.5 172.7813,157.5 Q173.4063,157.5 174,157.2266 Q174.5938,156.9531 175.2188,156.375 L175.2188,159.0938 Z "/><text fill="#000000" font-family="sans-serif" font-size="12" lengthAdjust="spacingAndGlyphs" textLength="32" x="192.75" y="157.6074">IWBM</text><line style="stroke: #A80036; stroke-width: 1.5;" x1="39.5" x2="345.5" y1="169.4531" y2="169.4531"/><rect fill="none" height="6" style="stroke: #C82930; stroke-width: 1.0;" width="6" x="46.5" y="178.3555"/><text fill="#000000" font-family="sans-serif" font-size="11" lengthAdjust="spacingAndGlyphs" textLength="58" x="58.5" y="183.6636">wbm_iCub</text><rect fill="none" height="6" style="stroke: #C82930; stroke-width: 1.0;" width="6" x="46.5" y="191.1602"/><text fill="#000000" font-family="sans-serif" font-size="11" lengthAdjust="spacingAndGlyphs" textLength="66" x="58.5" y="196.4683">iCub_model</text><rect fill="none" height="6" style="stroke: #C82930; stroke-width: 1.0;" width="6" x="46.5" y="203.9648"/><text fill="#000000" font-family="sans-serif" font-size="11" lengthAdjust="spacingAndGlyphs" textLength="65" x="58.5" y="209.2729">iCub_config</text><rect fill="none" height="6" style="stroke: #C82930; stroke-width: 1.0;" width="6" x="46.5" y="216.7695"/><text fill="#000000" font-family="sans-serif" font-size="11" lengthAdjust="spacingAndGlyphs" textLength="33" x="58.5" y="222.0776">vqT_b</text><rect fill="none" height="6" style="stroke: #C82930; stroke-width: 1.0;" width="6" x="46.5" y="229.5742"/><text fill="#000000" font-family="sans-serif" font-size="11" lengthAdjust="spacingAndGlyphs" textLength="19" x="58.5" y="234.8823">v_b</text><rect fill="none" height="6" style="stroke: #C82930; stroke-width: 1.0;" width="6" x="46.5" y="242.3789"/><text fill="#000000" font-family="sans-serif" font-size="11" lengthAdjust="spacingAndGlyphs" textLength="20" x="58.5" y="247.687">p_b</text><rect fill="none" height="6" style="stroke: #C82930; stroke-width: 1.0;" width="6" x="46.5" y="255.1836"/><text fill="#000000" font-family="sans-serif" font-size="11" lengthAdjust="spacingAndGlyphs" textLength="20" x="58.5" y="260.4917">R_b</text><rect fill="none" height="6" style="stroke: #C82930; stroke-width: 1.0;" width="6" x="46.5" y="267.9883"/><text fill="#000000" font-family="sans-serif" font-size="11" lengthAdjust="spacingAndGlyphs" textLength="7" x="58.5" y="273.2964">n</text><rect fill="none" height="6" style="stroke: #C82930; stroke-width: 1.0;" width="6" x="46.5" y="280.793"/><text fill="#000000" font-family="sans-serif" font-size="11" lengthAdjust="spacingAndGlyphs" textLength="34" x="58.5" y="286.1011">config</text><line style="stroke: #A80036; stroke-width: 1.5;" x1="39.5" x2="345.5" y1="292.6953" y2="292.6953"/><ellipse cx="49.5" cy="304.5977" fill="#84BE84" rx="3" ry="3" style="stroke: #038048; stroke-width: 1.0;"/><text fill="#000000" font-family="sans-serif" font-size="11" lengthAdjust="spacingAndGlyphs" textLength="210" x="58.5" y="306.9058">IWBM(out obj: IWBM, in L, in varargin)</text><ellipse cx="49.5" cy="317.4023" fill="#84BE84" rx="3" ry="3" style="stroke: #038048; stroke-width: 1.0;"/><text fill="#000000" font-family="sans-serif" font-size="11" lengthAdjust="spacingAndGlyphs" textLength="74" x="58.5" y="319.7104">delete(in obj)</text><ellipse cx="49.5" cy="330.207" fill="#84BE84" rx="3" ry="3" style="stroke: #038048; stroke-width: 1.0;"/><text fill="#000000" font-family="sans-serif" font-size="11" lengthAdjust="spacingAndGlyphs" textLength="79" x="58.5" y="332.5151">display(in obj)</text><ellipse cx="49.5" cy="343.0117" fill="#84BE84" rx="3" ry="3" style="stroke: #038048; stroke-width: 1.0;"/><text fill="#000000" font-family="sans-serif" font-size="11" lengthAdjust="spacingAndGlyphs" textLength="165" x="58.5" y="345.3198">A(out T, in obj, in joints, in q)</text><ellipse cx="49.5" cy="355.8164" fill="#84BE84" rx="3" ry="3" style="stroke: #038048; stroke-width: 1.0;"/><text fill="#000000" font-family="sans-serif" font-size="11" lengthAdjust="spacingAndGlyphs" textLength="152" x="58.5" y="358.1245">T0_6(out T0_6, in obj, in q)</text><ellipse cx="49.5" cy="368.6211" fill="#84BE84" rx="3" ry="3" style="stroke: #038048; stroke-width: 1.0;"/><text fill="#000000" font-family="sans-serif" font-size="11" lengthAdjust="spacingAndGlyphs" textLength="262" x="58.5" y="370.9292">jacob0(out J0 : matrix, in obj, in q, in varargin)</text><ellipse cx="49.5" cy="381.4258" fill="#84BE84" rx="3" ry="3" style="stroke: #038048; stroke-width: 1.0;"/><text fill="#000000" font-family="sans-serif" font-size="11" lengthAdjust="spacingAndGlyphs" textLength="257" x="58.5" y="383.7339">jacob_dot(out Jdot : matrix, in obj, in q, in qd)</text><ellipse cx="49.5" cy="394.2305" fill="#84BE84" rx="3" ry="3" style="stroke: #038048; stroke-width: 1.0;"/><text fill="#000000" font-family="sans-serif" font-size="11" lengthAdjust="spacingAndGlyphs" textLength="243" x="58.5" y="396.5386">inertia(out M : matrix, in obj, in robot, in q)</text><ellipse cx="49.5" cy="407.0352" fill="#84BE84" rx="3" ry="3" style="stroke: #038048; stroke-width: 1.0;"/><text fill="#000000" font-family="sans-serif" font-size="11" lengthAdjust="spacingAndGlyphs" textLength="282" x="58.5" y="409.3433">coriolis(out C : vector, in obj, in robot, in q, in qd)</text><ellipse cx="49.5" cy="419.8398" fill="#84BE84" rx="3" ry="3" style="stroke: #038048; stroke-width: 1.0;"/><text fill="#000000" font-family="sans-serif" font-size="11" lengthAdjust="spacingAndGlyphs" textLength="257" x="58.5" y="422.1479">gravload(out tg, in obj, in robot, in q, in grav)</text><ellipse cx="49.5" cy="432.6445" fill="#84BE84" rx="3" ry="3" style="stroke: #038048; stroke-width: 1.0;"/><text fill="#000000" font-family="sans-serif" font-size="11" lengthAdjust="spacingAndGlyphs" textLength="117" x="58.5" y="434.9526">set.base(in obj, in v)</text><ellipse cx="49.5" cy="445.4492" fill="#84BE84" rx="3" ry="3" style="stroke: #038048; stroke-width: 1.0;"/><text fill="#000000" font-family="sans-serif" font-size="11" lengthAdjust="spacingAndGlyphs" textLength="145" x="58.5" y="447.7573">payload(in obj, in m, in p)</text><path d="M192.5,97.0861 C192.5,109.0701 192.5,122.8221 192.5,137.3731 " fill="none" style="stroke: #A80036; stroke-width: 1.0;"/><polygon fill="none" points="185.5,97.0611,192.5,77.0611,199.5,97.0611,185.5,97.0611" style="stroke: #A80036; stroke-width: 1.0;"/></g></svg>